<?xml version="1.0" encoding="UTF-8"?>
<svg width="1600" height="1220" viewBox="0 0 1600 1220" fill="none" xmlns="http://www.w3.org/2000/svg">
  <defs>
    <linearGradient id="heroGradient" x1="40" y1="30" x2="1560" y2="240" gradientUnits="userSpaceOnUse">
      <stop offset="0" stop-color="#182033"/>
      <stop offset="0.45" stop-color="#245466"/>
      <stop offset="1" stop-color="#3E6F57"/>
    </linearGradient>
    <linearGradient id="overallGradient" x1="0" y1="0" x2="620" y2="0" gradientUnits="userSpaceOnUse">
      <stop offset="0" stop-color="#2F80ED"/>
      <stop offset="1" stop-color="#2EB67D"/>
    </linearGradient>
    <filter id="softShadow" x="-10%" y="-10%" width="120%" height="130%">
      <feDropShadow dx="0" dy="14" stdDeviation="18" flood-color="#1B2A38" flood-opacity="0.13"/>
    </filter>
    <style>
      .bg { fill: #F5F7FA; }
      .hero-title { font: 700 42px "Inter", "PingFang SC", "Microsoft YaHei", Arial, sans-serif; fill: #FFFFFF; letter-spacing: 0; }
      .hero-subtitle { font: 400 18px "Inter", "PingFang SC", "Microsoft YaHei", Arial, sans-serif; fill: rgba(255,255,255,0.84); letter-spacing: 0; }
      .hero-meta { font: 600 15px "Inter", "PingFang SC", "Microsoft YaHei", Arial, sans-serif; fill: rgba(255,255,255,0.72); letter-spacing: 0; }
      .card { fill: #FFFFFF; stroke: #E4E9F0; stroke-width: 1; filter: url(#softShadow); }
      .summary-label { font: 600 16px "Inter", "PingFang SC", "Microsoft YaHei", Arial, sans-serif; fill: #5B6878; letter-spacing: 0; }
      .summary-value { font: 800 34px "Inter", "PingFang SC", "Microsoft YaHei", Arial, sans-serif; fill: #182033; letter-spacing: 0; }
      .summary-note { font: 500 14px "Inter", "PingFang SC", "Microsoft YaHei", Arial, sans-serif; fill: #7B8794; letter-spacing: 0; }
      .section-title { font: 800 24px "Inter", "PingFang SC", "Microsoft YaHei", Arial, sans-serif; fill: #182033; letter-spacing: 0; }
      .section-note { font: 500 15px "Inter", "PingFang SC", "Microsoft YaHei", Arial, sans-serif; fill: #687386; letter-spacing: 0; }
      .lane-label { font: 800 15px "Inter", "PingFang SC", "Microsoft YaHei", Arial, sans-serif; fill: #FFFFFF; letter-spacing: 0; }
      .spec-title { font: 800 20px "Inter", "PingFang SC", "Microsoft YaHei", Arial, sans-serif; fill: #182033; letter-spacing: 0; }
      .spec-path { font: 600 12px "JetBrains Mono", "Consolas", monospace; fill: #7B8794; letter-spacing: 0; }
      .spec-desc { font: 500 14px "Inter", "PingFang SC", "Microsoft YaHei", Arial, sans-serif; fill: #566274; letter-spacing: 0; }
      .spec-count { font: 800 20px "Inter", "PingFang SC", "Microsoft YaHei", Arial, sans-serif; fill: #182033; letter-spacing: 0; }
      .spec-percent { font: 700 14px "Inter", "PingFang SC", "Microsoft YaHei", Arial, sans-serif; fill: #687386; letter-spacing: 0; }
      .pill-text { font: 800 12px "Inter", "PingFang SC", "Microsoft YaHei", Arial, sans-serif; fill: #FFFFFF; letter-spacing: 0; }
      .legend { font: 600 13px "Inter", "PingFang SC", "Microsoft YaHei", Arial, sans-serif; fill: #5B6878; letter-spacing: 0; }
      .bar-bg { fill: #E9EEF5; }
      .done { fill: #2EB67D; }
      .progress { fill: #2F80ED; }
      .warm { fill: #E3A008; }
      .empty { fill: #A7B0BE; }
      .footer-title { font: 800 20px "Inter", "PingFang SC", "Microsoft YaHei", Arial, sans-serif; fill: #182033; letter-spacing: 0; }
      .footer-text { font: 500 15px "Inter", "PingFang SC", "Microsoft YaHei", Arial, sans-serif; fill: #556174; letter-spacing: 0; }
      .footer-strong { font: 800 15px "Inter", "PingFang SC", "Microsoft YaHei", Arial, sans-serif; fill: #182033; letter-spacing: 0; }
      .tiny { font: 600 12px "Inter", "PingFang SC", "Microsoft YaHei", Arial, sans-serif; fill: #778396; letter-spacing: 0; }
    </style>
  </defs>

  <rect class="bg" width="1600" height="1220"/>

  <rect x="40" y="30" width="1520" height="210" rx="24" fill="url(#heroGradient)"/>
  <text x="80" y="92" class="hero-meta">PROJECT-FIRST ROADMAP · 2026-04-30</text>
  <text x="80" y="142" class="hero-title">WhyBuddy · Project-First 9 个规格执行进度总览</text>
  <text x="80" y="183" class="hero-subtitle">从“发起任务”收敛到“创建项目 → 澄清目标 → 演化 Spec → 规划路线 → 自动执行 → 沉淀证据”的主链路。</text>
  <text x="80" y="213" class="hero-meta">统计口径：读取 .kiro/specs/project-* 下 9 个 spec 的 tasks.md 顶层任务勾选项</text>
  <rect x="1170" y="72" width="310" height="118" rx="18" fill="rgba(255,255,255,0.14)" stroke="rgba(255,255,255,0.24)"/>
  <text x="1194" y="112" class="hero-meta">整体任务完成度</text>
  <text x="1194" y="159" class="hero-title">100%</text>
  <text x="1320" y="159" class="hero-subtitle">93 / 93</text>
  <rect x="1194" y="176" width="250" height="8" rx="4" fill="rgba(255,255,255,0.24)"/>
  <rect x="1194" y="176" width="250" height="8" rx="4" fill="#FFFFFF"/>

  <g transform="translate(60 270)">
    <rect class="card" width="330" height="122" rx="20"/>
    <text x="24" y="38" class="summary-label">Spec 创建</text>
    <text x="24" y="82" class="summary-value">9 / 9</text>
    <text x="220" y="82" class="summary-note">已完成</text>
  </g>
  <g transform="translate(430 270)">
    <rect class="card" width="330" height="122" rx="20"/>
    <text x="24" y="38" class="summary-label">规格文档</text>
    <text x="24" y="82" class="summary-value">27 / 27</text>
    <text x="232" y="82" class="summary-note">三件套齐备</text>
  </g>
  <g transform="translate(800 270)">
    <rect class="card" width="330" height="122" rx="20"/>
    <text x="24" y="38" class="summary-label">任务执行</text>
    <text x="24" y="82" class="summary-value">93 / 93</text>
    <text x="224" y="82" class="summary-note">主链路完成</text>
  </g>
  <g transform="translate(1170 270)">
    <rect class="card" width="330" height="122" rx="20"/>
    <text x="24" y="38" class="summary-label">当前状态</text>
    <text x="24" y="82" class="summary-value">9 个</text>
    <text x="126" y="82" class="summary-note">spec 已完成闭环</text>
  </g>

  <g transform="translate(60 425)">
    <text x="0" y="0" class="section-title">执行分层</text>
    <text x="132" y="0" class="section-note">Project 是第一层对象；50+ AIGC 节点沉入 FSD 角色内部；Docker / Workflow 是执行承载层，不再作为首屏入口。</text>
    <rect x="0" y="24" width="420" height="42" rx="21" fill="#182033"/>
    <text x="22" y="51" class="lane-label">P0 Foundation · 项目主线与基础能力</text>
    <rect x="446" y="24" width="350" height="42" rx="21" fill="#245466"/>
    <text x="468" y="51" class="lane-label">P1 Evolution · Spec 演化与路线规划</text>
    <rect x="822" y="24" width="330" height="42" rx="21" fill="#3E6F57"/>
    <text x="844" y="51" class="lane-label">P2 Runtime · 执行、回放与资源池</text>
    <g transform="translate(1190 35)">
      <circle cx="0" cy="0" r="6" fill="#2EB67D"/>
      <text x="14" y="5" class="legend">完成</text>
      <circle cx="76" cy="0" r="6" fill="#2F80ED"/>
      <text x="90" y="5" class="legend">进行中</text>
      <circle cx="166" cy="0" r="6" fill="#A7B0BE"/>
      <text x="180" y="5" class="legend">待开始</text>
    </g>
  </g>

  <!-- Spec card 1 -->
  <g transform="translate(60 520)">
    <rect class="card" width="470" height="155" rx="20"/>
    <rect x="24" y="24" width="74" height="28" rx="14" fill="#2EB67D"/>
    <text x="42" y="43" class="pill-text">完成</text>
    <text x="128" y="44" class="spec-title">Project-First Product Architecture</text>
    <text x="24" y="72" class="spec-path">project-first-product-architecture</text>
    <text x="24" y="101" class="spec-desc">收敛入口、首页主线、项目优先的信息架构。</text>
    <rect x="24" y="122" width="320" height="10" rx="5" class="bar-bg"/>
    <rect x="24" y="122" width="320" height="10" rx="5" class="done"/>
    <text x="366" y="132" class="spec-count">12 / 12</text>
    <text x="24" y="146" class="spec-percent">100% · P0 产品定义</text>
  </g>

  <!-- Spec card 2 -->
  <g transform="translate(565 520)">
    <rect class="card" width="470" height="155" rx="20"/>
    <rect x="24" y="24" width="74" height="28" rx="14" fill="#2EB67D"/>
    <text x="42" y="43" class="pill-text">完成</text>
    <text x="114" y="44" class="spec-title">Project Domain Model</text>
    <text x="24" y="72" class="spec-path">project-domain-model</text>
    <text x="24" y="101" class="spec-desc">Project、Spec、Artifact、Execution 数据底座已闭环。</text>
    <rect x="24" y="122" width="320" height="10" rx="5" class="bar-bg"/>
    <rect x="24" y="122" width="320" height="10" rx="5" class="done"/>
    <text x="366" y="132" class="spec-count">10 / 10</text>
    <text x="24" y="146" class="spec-percent">100% · P0 数据底座</text>
  </g>

  <!-- Spec card 3 -->
  <g transform="translate(1070 520)">
    <rect class="card" width="470" height="155" rx="20"/>
    <rect x="24" y="24" width="74" height="28" rx="14" fill="#2EB67D"/>
    <text x="42" y="43" class="pill-text">完成</text>
    <text x="128" y="44" class="spec-title">Project Cockpit Home</text>
    <text x="24" y="72" class="spec-path">project-cockpit-home</text>
    <text x="24" y="101" class="spec-desc">首页先创建 / 选择项目，再进入当前项目驾驶舱。</text>
    <rect x="24" y="122" width="320" height="10" rx="5" class="bar-bg"/>
    <rect x="24" y="122" width="320" height="10" rx="5" class="done"/>
    <text x="366" y="132" class="spec-count">11 / 11</text>
    <text x="24" y="146" class="spec-percent">100% · P0 首页收敛</text>
  </g>

  <!-- Spec card 4 -->
  <g transform="translate(60 705)">
    <rect class="card" width="470" height="155" rx="20"/>
    <rect x="24" y="24" width="74" height="28" rx="14" fill="#2EB67D"/>
    <text x="42" y="43" class="pill-text">完成</text>
    <text x="126" y="44" class="spec-title">Project-Scoped Composer</text>
    <text x="24" y="72" class="spec-path">project-scoped-composer</text>
    <text x="24" y="101" class="spec-desc">问答、发起、补全面板都绑定 projectId 与项目上下文。</text>
    <rect x="24" y="122" width="320" height="10" rx="5" class="bar-bg"/>
    <rect x="24" y="122" width="320" height="10" rx="5" class="done"/>
    <text x="366" y="132" class="spec-count">11 / 11</text>
    <text x="24" y="146" class="spec-percent">100% · P0 问答接入</text>
  </g>

  <!-- Spec card 5 -->
  <g transform="translate(565 705)">
    <rect class="card" width="470" height="155" rx="20"/>
    <rect x="24" y="24" width="74" height="28" rx="14" fill="#2EB67D"/>
    <text x="42" y="43" class="pill-text">完成</text>
    <text x="126" y="44" class="spec-title">Clarification Conversation</text>
    <text x="24" y="72" class="spec-path">project-clarification-conversation</text>
    <text x="24" y="101" class="spec-desc">信息不足时进入澄清回合，把选择沉淀回项目。</text>
    <rect x="24" y="122" width="320" height="10" rx="5" class="bar-bg"/>
    <rect x="24" y="122" width="320" height="10" rx="5" class="done"/>
    <text x="366" y="132" class="spec-count">9 / 9</text>
    <text x="24" y="146" class="spec-percent">100% · P0 澄清闭环</text>
  </g>

  <!-- Spec card 6 -->
  <g transform="translate(1070 705)">
    <rect class="card" width="470" height="155" rx="20"/>
    <rect x="24" y="24" width="74" height="28" rx="14" fill="#2EB67D"/>
    <text x="42" y="43" class="pill-text">完成</text>
    <text x="126" y="44" class="spec-title">Project Execution Center</text>
    <text x="24" y="72" class="spec-path">project-execution-center</text>
    <text x="24" y="101" class="spec-desc">任务中心按项目聚合执行状态、日志、产物与控制动作。</text>
    <rect x="24" y="122" width="320" height="10" rx="5" class="bar-bg"/>
    <rect x="24" y="122" width="320" height="10" rx="5" class="done"/>
    <text x="366" y="132" class="spec-count">10 / 10</text>
    <text x="24" y="146" class="spec-percent">100% · P0 执行接入</text>
  </g>

  <!-- Spec card 7 -->
  <g transform="translate(60 890)">
    <rect class="card" width="470" height="155" rx="20"/>
    <rect x="24" y="24" width="74" height="28" rx="14" fill="#2EB67D"/>
    <text x="42" y="43" class="pill-text">完成</text>
    <text x="128" y="44" class="spec-title">Project Spec Center</text>
    <text x="24" y="72" class="spec-path">project-spec-center</text>
    <text x="24" y="101" class="spec-desc">Spec 版本、依据来源、演化记录与项目产物归档。</text>
    <rect x="24" y="122" width="320" height="10" rx="5" class="bar-bg"/>
    <rect x="24" y="122" width="320" height="10" rx="5" class="done"/>
    <text x="366" y="132" class="spec-count">10 / 10</text>
    <text x="24" y="146" class="spec-percent">100% · P1 规格中枢</text>
  </g>

  <!-- Spec card 8 -->
  <g transform="translate(565 890)">
    <rect class="card" width="470" height="155" rx="20"/>
    <rect x="24" y="24" width="74" height="28" rx="14" fill="#2EB67D"/>
    <text x="42" y="43" class="pill-text">完成</text>
    <text x="128" y="44" class="spec-title">FSD Route Planner</text>
    <text x="24" y="72" class="spec-path">project-fsd-route-planner</text>
    <text x="24" y="101" class="spec-desc">主路线、备选路线、风险、成本、时间与用户选择。</text>
    <rect x="24" y="122" width="320" height="10" rx="5" class="bar-bg"/>
    <rect x="24" y="122" width="320" height="10" rx="5" class="done"/>
    <text x="366" y="132" class="spec-count">10 / 10</text>
    <text x="24" y="146" class="spec-percent">100% · P1 自动驾驶规划</text>
  </g>

  <!-- Spec card 9 -->
  <g transform="translate(1070 890)">
    <rect class="card" width="470" height="155" rx="20"/>
    <rect x="24" y="24" width="74" height="28" rx="14" fill="#2EB67D"/>
    <text x="42" y="43" class="pill-text">完成</text>
    <text x="128" y="44" class="spec-title">Evidence Artifact Replay</text>
    <text x="24" y="72" class="spec-path">project-evidence-artifact-replay</text>
    <text x="24" y="101" class="spec-desc">结果、证据、SVG 进度、日志回放都沉淀回项目。</text>
    <rect x="24" y="122" width="320" height="10" rx="5" class="bar-bg"/>
    <rect x="24" y="122" width="320" height="10" rx="5" class="done"/>
    <text x="366" y="132" class="spec-count">10 / 10</text>
    <text x="24" y="146" class="spec-percent">100% · P2 证据闭环</text>
  </g>

  <g transform="translate(60 1080)">
    <rect class="card" width="1480" height="100" rx="22"/>
    <text x="28" y="36" class="footer-title">当前执行结果</text>
    <text x="28" y="68" class="footer-strong">主链路已闭环：</text>
    <text x="154" y="68" class="footer-text">Project → Clarification → Spec → Route → Execution → Evidence Replay 已完成 93 / 93。</text>
    <text x="28" y="90" class="footer-strong">下一步建议：</text>
    <text x="126" y="90" class="footer-text">做一次桌面手测与真实项目样例跑通，再决定是否进入 Docker 智能体与 key pool 调度层。</text>
    <text x="1176" y="36" class="tiny">生成位置：docs/project-first-9-spec-progress-overview-2026-04-30.svg</text>
  </g>
</svg>
