<?xml version="1.0" encoding="UTF-8"?>
<!--
  Pure-vector redraw of the WhyBuddy reconnaissance overview.
  Source basis: the light-theme index infographic the user shared on 2026-05-28
                + the audited truth sources (spec-audit-table.md, module-inventory.md,
                  project-overview.md § 项目规模, B_Tier_Recommendation.md).
  Method:       hand-drawn SVG primitives (<rect>, <text>, <path>). All numbers
                cite the same frozen HEAD `d181be2f` (2026-05-28) as the rest
                of the spec dir.
  Editability:  text is real <text>; colours are CSS variables in <style>;
                redraw a section by editing the matching <g id="…">.
-->
<svg xmlns="http://www.w3.org/2000/svg"
     viewBox="0 0 1600 1100"
     font-family="'Segoe UI','PingFang SC','Microsoft YaHei',Helvetica,Arial,sans-serif"
     font-size="11">
  <title>WhyBuddy (Task Autopilot) 仓库侦察总关联关系图 — A+ Reconnaissance Overview 2026-05-28</title>

  <style>
    .bg        { fill: #f5f7fa; }
    .panel     { fill: #ffffff; stroke: #d6dde6; stroke-width: 1; }
    .panel-hi  { fill: #ffffff; stroke: #4f80ff; stroke-width: 1.5; }
    .h1        { font-size: 22px; font-weight: 700; fill: #0f172a; }
    .h2-sub    { font-size: 12px; fill: #475569; }
    .h-meta    { font-size: 11px; fill: #64748b; }
    .badge-bg  { fill: #1d4ed8; }
    .badge-tx  { fill: #ffffff; font-weight: 700; font-size: 11px; }
    .sec-title { font-size: 13px; font-weight: 700; fill: #0f172a; }
    .sec-num   { font-size: 13px; font-weight: 700; fill: #ffffff; }
    .sec-num-bg{ fill: #2563eb; }
    .sec-cap   { font-size: 10px; fill: #64748b; }
    .label     { font-size: 11px; fill: #1e293b; }
    .label-mu  { font-size: 11px; fill: #64748b; }
    .num-big   { font-size: 28px; font-weight: 700; fill: #0f172a; }
    .num-mid   { font-size: 18px; font-weight: 700; fill: #0f172a; }
    .num-sm    { font-size: 13px; font-weight: 700; fill: #0f172a; }
    .pill      { rx: 4; ry: 4; }
    .trunk     { fill: #16a34a; }
    .branch    { fill: #f59e0b; }
    .legacy    { fill: #94a3b8; }
    .ok        { fill: #16a34a; }
    .warn      { fill: #f59e0b; }
    .danger    { fill: #ef4444; }
    .neutral   { fill: #94a3b8; }
    .arrow     { stroke: #94a3b8; stroke-width: 1.2; fill: none; }
    .flow-box  { fill: #eff6ff; stroke: #3b82f6; stroke-width: 1; rx: 6; ry: 6; }
    .obj-box   { fill: #f0f9ff; stroke: #0284c7; stroke-width: 1; rx: 6; ry: 6; }
    .layer-box { fill: #f8fafc; stroke: #cbd5e1; stroke-width: 1; rx: 4; ry: 4; }
    .file-tag  { fill: #eef2ff; stroke: #6366f1; stroke-width: 0.8; rx: 3; ry: 3; }
    .mono      { font-family: 'Consolas','Monaco','Liberation Mono',monospace; font-size: 10px; }
    .code-tag  { font-family: 'Consolas','Monaco',monospace; font-size: 9px; fill: #4338ca; }
    .axis      { stroke: #cbd5e1; stroke-width: 0.6; }
  </style>

  <!-- ============= background ============= -->
  <rect class="bg" x="0" y="0" width="1600" height="1100"/>

  <!-- ============= header ============= -->
  <g id="header">
    <rect x="0" y="0" width="1600" height="56" fill="#0f172a"/>
    <text class="h1" x="24" y="34" fill="#ffffff">WhyBuddy (Task Autopilot) 仓库侦察总关联关系图</text>
    <text class="h2-sub" x="635" y="34" fill="#cbd5e1">A+ 级系统控制权恢复包 — 总览</text>
    <text class="h-meta" x="1140" y="22" fill="#cbd5e1">Generated 2026-05-28</text>
    <text class="h-meta" x="1140" y="38" fill="#cbd5e1">Commit  d181be2f</text>
    <rect x="1480" y="14" width="100" height="28" rx="4" fill="#dc2626"/>
    <text x="1530" y="33" text-anchor="middle" font-size="12" font-weight="700" fill="#ffffff">FROZEN HEAD</text>
  </g>

  <!-- ============= top metrics row ============= -->
  <g id="metrics" transform="translate(20,72)">
    <!-- 6 cards × 256 wide × 76 tall, 4px gap -->
    <g transform="translate(0,0)">
      <rect class="panel" width="256" height="76" rx="6"/>
      <text x="14" y="22" class="label-mu">📄</text>
      <text class="num-big" x="34" y="34">2,130</text>
      <text class="label" x="34" y="52">TS/TSX files</text>
      <text class="label-mu" x="34" y="66">~545K 总行数</text>
    </g>
    <g transform="translate(260,0)">
      <rect class="panel" width="256" height="76" rx="6"/>
      <text class="num-big" x="14" y="34">1,074</text>
      <text class="label" x="14" y="52">Markdown 文件</text>
      <text class="label-mu" x="14" y="66">文档库</text>
    </g>
    <g transform="translate(520,0)">
      <rect class="panel" width="256" height="76" rx="6"/>
      <text class="num-big" x="14" y="34">289</text>
      <text class="label" x="14" y="52">Specs</text>
      <text class="label-mu" x="14" y="66">287 baseline + 2 footnoted</text>
    </g>
    <g transform="translate(780,0)">
      <rect class="panel" width="256" height="76" rx="6"/>
      <text class="num-big" x="14" y="34">8,806</text>
      <text class="label" x="14" y="52">Tasks Checkboxes</text>
      <text class="label-mu" x="14" y="66">任务复选框</text>
    </g>
    <g transform="translate(1040,0)">
      <rect class="panel" width="256" height="76" rx="6"/>
      <text class="num-big" x="14" y="34">969</text>
      <text class="label" x="14" y="52">Modules</text>
      <text class="label-mu" x="14" y="66">代码模块清单</text>
    </g>
    <g transform="translate(1300,0)">
      <rect class="panel" width="260" height="76" rx="6"/>
      <text class="num-mid mono" x="14" y="34" fill="#1d4ed8">d181be2f</text>
      <text class="label" x="14" y="52">当前 Commit</text>
      <text class="label-mu" x="14" y="66">Frozen HEAD</text>
    </g>
  </g>

  <!-- ============= row A: Sections 1, 2, 3 ============= -->

  <!-- Section 1: 项目总定义 -->
  <g id="sec1" transform="translate(20,164)">
    <rect class="panel-hi" width="500" height="240" rx="6"/>
    <rect class="sec-num-bg" x="14" y="14" width="22" height="22" rx="3"/>
    <text class="sec-num" x="25" y="30" text-anchor="middle">1</text>
    <text class="sec-title" x="44" y="30">项目总定义</text>
    <text class="code-tag" x="44" y="44">00-project-definition.md</text>

    <text class="label" x="14" y="72" font-weight="700">项目定位</text>
    <text class="label-mu" x="14" y="88">task-autopilot platform</text>
    <text class="label-mu" x="14" y="104">以 Project 为核心，沿着 Spec Workspace 与</text>
    <text class="label-mu" x="14" y="118">Execution Runtime, 实现任务的自动驾驶与证据回流。</text>

    <text class="label" x="14" y="146" font-weight="700">核心工程主干 (Main Engineering Trunk)</text>
    <g transform="translate(14,154)">
      <g transform="translate(0,8)"><rect width="68" height="22" rx="3" fill="#dbeafe"/><text x="34" y="16" text-anchor="middle" font-size="11" fill="#1e40af">Mission</text></g>
      <g transform="translate(74,8)"><rect width="74" height="22" rx="3" fill="#dbeafe"/><text x="37" y="16" text-anchor="middle" font-size="11" fill="#1e40af">Workflow</text></g>
      <g transform="translate(154,8)"><rect width="66" height="22" rx="3" fill="#dbeafe"/><text x="33" y="16" text-anchor="middle" font-size="11" fill="#1e40af">Runtime</text></g>
      <g transform="translate(226,8)"><rect width="68" height="22" rx="3" fill="#dbeafe"/><text x="34" y="16" text-anchor="middle" font-size="11" fill="#1e40af">Decision</text></g>
      <g transform="translate(300,8)"><rect width="56" height="22" rx="3" fill="#dbeafe"/><text x="28" y="16" text-anchor="middle" font-size="11" fill="#1e40af">Audit</text></g>
      <g transform="translate(362,8)"><rect width="58" height="22" rx="3" fill="#dbeafe"/><text x="29" y="16" text-anchor="middle" font-size="11" fill="#1e40af">Replay</text></g>
    </g>

    <text class="label" x="14" y="208" font-weight="700">主线码闭环</text>
    <text class="code-tag" x="84" y="208">01-main-business-loop.md</text>
    <g transform="translate(14,214)" font-size="10" fill="#0f172a">
      <text x="0"   y="14">Project</text>
      <text x="55"  y="14">→</text>
      <text x="68"  y="14">Clarification</text>
      <text x="135" y="14">→</text>
      <text x="148" y="14">Spec</text>
      <text x="180" y="14">→</text>
      <text x="193" y="14">Route</text>
      <text x="231" y="14">→</text>
      <text x="244" y="14">Execution</text>
      <text x="305" y="14">→</text>
      <text x="318" y="14">Evidence</text>
    </g>
  </g>

  <!-- Section 2: 核心对象模型 -->
  <g id="sec2" transform="translate(540,164)">
    <rect class="panel" width="500" height="240" rx="6"/>
    <rect class="sec-num-bg" x="14" y="14" width="22" height="22" rx="3"/>
    <text class="sec-num" x="25" y="30" text-anchor="middle">2</text>
    <text class="sec-title" x="44" y="30">核心对象模型</text>
    <text class="code-tag" x="44" y="44">02-core-object-model.md</text>

    <text class="sec-cap" x="14" y="68">核心域对象 (Core Domain Objects)</text>

    <!-- 9 object boxes in 3×3 grid -->
    <g transform="translate(20,80)">
      <!-- row 1: Mission, Project, Workspace -->
      <g><rect class="obj-box" width="128" height="40"/><text x="64" y="18" text-anchor="middle" font-weight="700" font-size="12" fill="#0c4a6e">Mission</text><text x="64" y="32" text-anchor="middle" font-size="10" fill="#0369a1">业务闭环</text></g>
      <g transform="translate(160,0)"><rect class="obj-box" width="128" height="40"/><text x="64" y="18" text-anchor="middle" font-weight="700" font-size="12" fill="#0c4a6e">Project</text><text x="64" y="32" text-anchor="middle" font-size="10" fill="#0369a1">项目实例</text></g>
      <g transform="translate(320,0)"><rect class="obj-box" width="128" height="40"/><text x="64" y="18" text-anchor="middle" font-weight="700" font-size="12" fill="#0c4a6e">Workspace</text><text x="64" y="32" text-anchor="middle" font-size="10" fill="#0369a1">工作仓</text></g>
      <!-- row 2: Workflow, Runtime, Decision -->
      <g transform="translate(0,56)"><rect class="obj-box" width="128" height="40"/><text x="64" y="18" text-anchor="middle" font-weight="700" font-size="12" fill="#0c4a6e">Workflow</text><text x="64" y="32" text-anchor="middle" font-size="10" fill="#0369a1">工作流</text></g>
      <g transform="translate(160,56)"><rect class="obj-box" width="128" height="40"/><text x="64" y="18" text-anchor="middle" font-weight="700" font-size="12" fill="#0c4a6e">Runtime</text><text x="64" y="32" text-anchor="middle" font-size="10" fill="#0369a1">运行时</text></g>
      <g transform="translate(320,56)"><rect class="obj-box" width="128" height="40"/><text x="64" y="18" text-anchor="middle" font-weight="700" font-size="12" fill="#0c4a6e">Decision</text><text x="64" y="32" text-anchor="middle" font-size="10" fill="#0369a1">决策记录</text></g>
      <!-- row 3: Audit, Replay, Evidence -->
      <g transform="translate(0,112)"><rect class="obj-box" width="128" height="40"/><text x="64" y="18" text-anchor="middle" font-weight="700" font-size="12" fill="#0c4a6e">Audit</text><text x="64" y="32" text-anchor="middle" font-size="10" fill="#0369a1">审计日志</text></g>
      <g transform="translate(160,112)"><rect class="obj-box" width="128" height="40"/><text x="64" y="18" text-anchor="middle" font-weight="700" font-size="12" fill="#0c4a6e">Replay</text><text x="64" y="32" text-anchor="middle" font-size="10" fill="#0369a1">回放运行</text></g>
      <g transform="translate(320,112)"><rect class="obj-box" width="128" height="40"/><text x="64" y="18" text-anchor="middle" font-weight="700" font-size="12" fill="#0c4a6e">Evidence</text><text x="64" y="32" text-anchor="middle" font-size="10" fill="#0369a1">证据产物</text></g>
    </g>

    <g transform="translate(20,228)" font-size="10">
      <rect width="10" height="10" fill="#0284c7"/><text x="16" y="9" fill="#475569">Primary 主关系</text>
      <rect x="100" width="10" height="10" fill="#cbd5e1"/><text x="116" y="9" fill="#475569">Related 关联</text>
    </g>
  </g>

  <!-- Section 3: 系统分层 + 仓库结构 -->
  <g id="sec3" transform="translate(1060,164)">
    <rect class="panel" width="520" height="240" rx="6"/>
    <rect class="sec-num-bg" x="14" y="14" width="22" height="22" rx="3"/>
    <text class="sec-num" x="25" y="30" text-anchor="middle">3</text>
    <text class="sec-title" x="44" y="30">系统分层与仓库结构</text>
    <text class="code-tag" x="44" y="44">03-system-layering.md</text>

    <!-- Logical layers L1-L5 -->
    <text class="sec-cap" x="14" y="64">系统分层 (Logical Layers)</text>
    <g transform="translate(14,72)">
      <g transform="translate(0,0)">  <rect class="layer-box" width="220" height="22"/><text x="8" y="15" font-size="11" font-weight="700" fill="#0f172a">L5</text><text x="32" y="15" font-size="11" fill="#1e293b">Presentation 前端展现层</text></g>
      <g transform="translate(0,26)"> <rect class="layer-box" width="220" height="22"/><text x="8" y="15" font-size="11" font-weight="700" fill="#0f172a">L4</text><text x="32" y="15" font-size="11" fill="#1e293b">Orchestration 编排层</text></g>
      <g transform="translate(0,52)"> <rect class="layer-box" width="220" height="22"/><text x="8" y="15" font-size="11" font-weight="700" fill="#0f172a">L3</text><text x="32" y="15" font-size="11" fill="#1e293b">Domain 领域层</text></g>
      <g transform="translate(0,78)"> <rect class="layer-box" width="220" height="22"/><text x="8" y="15" font-size="11" font-weight="700" fill="#0f172a">L2</text><text x="32" y="15" font-size="11" fill="#1e293b">Infrastructure 基础设施层</text></g>
      <g transform="translate(0,104)"><rect class="layer-box" width="220" height="22"/><text x="8" y="15" font-size="11" font-weight="700" fill="#0f172a">L1</text><text x="32" y="15" font-size="11" fill="#1e293b">Foundation 数据/缓存/文件存储</text></g>
    </g>
    <text class="label-mu" x="14" y="216" font-style="italic">注：L1–L5 为本图采用的逻辑分层视图；仓库实际目录使用 client / server / shared / services 结构。</text>

    <!-- Repository structure -->
    <text class="sec-cap" x="250" y="64">仓库物理结构 (Repository Structure)</text>
    <g transform="translate(250,72)" font-size="11">
      <g transform="translate(0,0)">  <rect width="256" height="20" fill="#fef3c7" rx="3"/><text x="8" y="14" fill="#0f172a" font-weight="700">Client</text><text x="60" y="14" fill="#475569">client/src</text><text x="248" y="14" text-anchor="end" fill="#0f172a">916 files / 217K</text></g>
      <g transform="translate(0,24)"> <rect width="256" height="20" fill="#dcfce7" rx="3"/><text x="8" y="14" fill="#0f172a" font-weight="700">Shared</text><text x="60" y="14" fill="#475569">shared/</text><text x="248" y="14" text-anchor="end" fill="#0f172a">139 files / 26K</text></g>
      <g transform="translate(0,48)"> <rect width="256" height="20" fill="#dbeafe" rx="3"/><text x="8" y="14" fill="#0f172a" font-weight="700">Server</text><text x="60" y="14" fill="#475569">server/</text><text x="248" y="14" text-anchor="end" fill="#0f172a">1,004 files / 290K</text></g>
      <g transform="translate(0,72)"> <rect width="256" height="20" fill="#ede9fe" rx="3"/><text x="8" y="14" fill="#0f172a" font-weight="700">Executor</text><text x="60" y="14" fill="#475569">services/lobster-executor</text><text x="248" y="14" text-anchor="end" fill="#0f172a">68 files / 12K</text></g>
      <g transform="translate(0,96)"> <rect width="256" height="20" fill="#fce7f3" rx="3"/><text x="8" y="14" fill="#0f172a" font-weight="700">Docs</text><text x="60" y="14" fill="#475569">.kiro/specs &amp; docs</text><text x="248" y="14" text-anchor="end" fill="#0f172a">289 dirs / 1,074 md</text></g>
    </g>
  </g>

  <!-- ============= row B: Section 4 (full width, domain map + module distribution) ============= -->
  <g id="sec4" transform="translate(20,420)">
    <rect class="panel" width="1560" height="220" rx="6"/>
    <rect class="sec-num-bg" x="14" y="14" width="22" height="22" rx="3"/>
    <text class="sec-num" x="25" y="30" text-anchor="middle">4</text>
    <text class="sec-title" x="44" y="30">域地图与模块分布</text>
    <text class="code-tag" x="44" y="44">04-domain-map.md  ·  05-frontend-navigation-map.md  ·  06-backend-capability-map.md</text>

    <!-- Left: domain bar chart -->
    <g transform="translate(20,68)">
      <text class="sec-cap" x="0" y="0">域分布 (按模块归属) — 969 modules</text>
      <!-- bars: each domain row is 14px tall + 4px gap; x-axis 0..460 = 0..459 modules -->
      <g font-size="11" fill="#0f172a" transform="translate(0,12)">
        <!-- row 1 -->
        <g transform="translate(0,0)">  <text x="0" y="11">frontend-cockpit</text><rect x="120" y="0" width="459" height="14" fill="#16a34a"/><text x="586" y="11" fill="#0f172a" font-weight="700">459</text></g>
        <g transform="translate(0,18)"> <text x="0" y="11">infrastructure*</text>  <rect x="120" y="0" width="403" height="14" fill="#f59e0b"/><text x="530" y="11" fill="#0f172a" font-weight="700">403</text></g>
        <g transform="translate(0,36)"> <text x="0" y="11">executor</text>         <rect x="120" y="0" width="33"  height="14" fill="#16a34a"/><text x="160" y="11" fill="#0f172a" font-weight="700">33</text></g>
        <g transform="translate(0,54)"> <text x="0" y="11">interop</text>          <rect x="120" y="0" width="17"  height="14" fill="#f59e0b"/><text x="144" y="11" fill="#0f172a" font-weight="700">17</text></g>
        <g transform="translate(0,72)"> <text x="0" y="11">frontend-3d</text>      <rect x="120" y="0" width="15"  height="14" fill="#f59e0b"/><text x="142" y="11" fill="#0f172a" font-weight="700">15</text></g>
        <g transform="translate(0,90)"> <text x="0" y="11">mission</text>          <rect x="120" y="0" width="14"  height="14" fill="#16a34a"/><text x="141" y="11" fill="#0f172a" font-weight="700">14</text></g>
        <g transform="translate(0,108)"><text x="0" y="11">workflow</text>         <rect x="120" y="0" width="13"  height="14" fill="#16a34a"/><text x="140" y="11" fill="#0f172a" font-weight="700">13</text></g>
        <g transform="translate(0,126)"><text x="0" y="11">audit</text>            <rect x="120" y="0" width="5"   height="14" fill="#16a34a"/><text x="132" y="11" fill="#0f172a" font-weight="700">5</text></g>
        <g transform="translate(0,144)"><text x="0" y="11">lineage</text>          <rect x="120" y="0" width="5"   height="14" fill="#16a34a"/><text x="132" y="11" fill="#0f172a" font-weight="700">5</text></g>
        <g transform="translate(0,162)"><text x="0" y="11">memory</text>           <rect x="120" y="0" width="4"   height="14" fill="#f59e0b"/><text x="131" y="11" fill="#0f172a" font-weight="700">4</text></g>
      </g>
      <text class="label-mu" x="0" y="190" font-style="italic">* infrastructure 含 blueprint runtime 主干（C-tier 重组候选见 B_Tier_Recommendation.md § C1）</text>
    </g>

    <!-- Middle: module classification donut (synthesised by stacked rects) -->
    <g transform="translate(720,68)">
      <text class="sec-cap" x="0" y="0">模块分级 (Stage 5 标注)</text>
      <!-- big numbers with tags -->
      <g transform="translate(0,18)">
        <rect width="220" height="34" rx="3" fill="#dcfce7"/>
        <text x="14" y="22" font-size="12" font-weight="700" fill="#166534">TRUNK 主干 · On Main Loop</text>
        <text x="206" y="22" text-anchor="end" font-size="14" font-weight="700" fill="#166534">530 (54.7%)</text>
      </g>
      <g transform="translate(0,58)">
        <rect width="220" height="34" rx="3" fill="#fef3c7"/>
        <text x="14" y="22" font-size="12" font-weight="700" fill="#92400e">BRANCH 分支 · Off Main Loop</text>
        <text x="206" y="22" text-anchor="end" font-size="14" font-weight="700" fill="#92400e">439 (45.3%)</text>
      </g>
      <g transform="translate(0,98)">
        <rect width="220" height="34" rx="3" fill="#f1f5f9"/>
        <text x="14" y="22" font-size="12" font-weight="700" fill="#475569">LEGACY 历史遗留</text>
        <text x="206" y="22" text-anchor="end" font-size="14" font-weight="700" fill="#475569">0 (0.0%)</text>
      </g>
      <text class="label-mu" x="0" y="160" font-style="italic">汇总：TRUNK 530 · BRANCH 439 · LEGACY 0</text>
    </g>

    <!-- Right: capability sublists -->
    <g transform="translate(980,68)">
      <text class="sec-cap" x="0" y="0">前端导航 (D5) · 后端能力 (D6)</text>
      <g transform="translate(0,12)" font-size="10">
        <text x="0" y="0" fill="#475569" font-weight="700">前端 (frontend-cockpit / frontend-3d)</text>
        <g transform="translate(0,8)">
          <g transform="translate(0,0)">  <rect width="86" height="22" fill="#eef2ff" rx="3"/><text x="43" y="15" text-anchor="middle">Cockpit 控制台</text></g>
          <g transform="translate(94,0)"> <rect width="86" height="22" fill="#eef2ff" rx="3"/><text x="43" y="15" text-anchor="middle">3D Scene 场景</text></g>
          <g transform="translate(188,0)"><rect width="86" height="22" fill="#eef2ff" rx="3"/><text x="43" y="15" text-anchor="middle">Pages 页面</text></g>
          <g transform="translate(282,0)"><rect width="86" height="22" fill="#eef2ff" rx="3"/><text x="43" y="15" text-anchor="middle">Right Rail</text></g>
          <g transform="translate(376,0)"><rect width="86" height="22" fill="#eef2ff" rx="3"/><text x="43" y="15" text-anchor="middle">Store / Replay</text></g>
        </g>
        <text x="0" y="56" fill="#475569" font-weight="700">后端 (server / shared / services)</text>
        <g transform="translate(0,64)">
          <g transform="translate(0,0)">  <rect width="86" height="22" fill="#dbeafe" rx="3"/><text x="43" y="15" text-anchor="middle">Mission FSM</text></g>
          <g transform="translate(94,0)"> <rect width="86" height="22" fill="#dbeafe" rx="3"/><text x="43" y="15" text-anchor="middle">Workflow 工作流</text></g>
          <g transform="translate(188,0)"><rect width="86" height="22" fill="#dbeafe" rx="3"/><text x="43" y="15" text-anchor="middle">Executor 执行器</text></g>
          <g transform="translate(282,0)"><rect width="86" height="22" fill="#dbeafe" rx="3"/><text x="43" y="15" text-anchor="middle">Audit 审计</text></g>
          <g transform="translate(376,0)"><rect width="86" height="22" fill="#dbeafe" rx="3"/><text x="43" y="15" text-anchor="middle">Lineage 血缘</text></g>
        </g>
        <g transform="translate(0,96)">
          <g transform="translate(0,0)">  <rect width="86" height="22" fill="#dbeafe" rx="3"/><text x="43" y="15" text-anchor="middle">Replay 回放</text></g>
          <g transform="translate(94,0)"> <rect width="86" height="22" fill="#dbeafe" rx="3"/><text x="43" y="15" text-anchor="middle">A2A 协议</text></g>
          <g transform="translate(188,0)"><rect width="86" height="22" fill="#dbeafe" rx="3"/><text x="43" y="15" text-anchor="middle">Feishu 集成</text></g>
          <g transform="translate(282,0)"><rect width="86" height="22" fill="#dbeafe" rx="3"/><text x="43" y="15" text-anchor="middle">RAG / 知识库</text></g>
          <g transform="translate(376,0)"><rect width="86" height="22" fill="#dbeafe" rx="3"/><text x="43" y="15" text-anchor="middle">向量 DB 管道</text></g>
        </g>
      </g>
    </g>
  </g>

  <!-- ============= row C: Section 5 — Spec audit + runtime + storyline (3 cols) ============= -->
  <g id="sec5" transform="translate(20,656)">
    <!-- 5A: spec audit -->
    <g>
      <rect class="panel" width="500" height="220" rx="6"/>
      <rect class="sec-num-bg" x="14" y="14" width="22" height="22" rx="3"/>
      <text class="sec-num" x="25" y="30" text-anchor="middle">5</text>
      <text class="sec-title" x="44" y="30">5A · Spec 审计结果</text>
      <text class="code-tag" x="44" y="44">07-spec-current-state-audit.md  ·  spec-audit-table.md</text>
      <!-- bars: 289 total, x-axis 0..400 maps to 0..200 -->
      <g transform="translate(20,68)" font-size="11">
        <g transform="translate(0,0)">  <text x="0" y="11">IMPLEMENTED_AND_VALID</text> <rect x="160" y="0" width="314" height="14" fill="#16a34a"/><text x="160" y="-2" font-size="10" fill="#0f172a">157 (54.32%)</text></g>
        <g transform="translate(0,28)"> <text x="0" y="11">DESIGNED_NEVER_BUILT</text>   <rect x="160" y="0" width="244" height="14" fill="#f59e0b"/><text x="160" y="-2" font-size="10" fill="#0f172a">122 (42.21%)</text></g>
        <g transform="translate(0,56)"> <text x="0" y="11">PARTIALLY_IMPLEMENTED</text>  <rect x="160" y="0" width="18"  height="14" fill="#ef4444"/><text x="160" y="-2" font-size="10" fill="#0f172a">9 (3.11%)</text></g>
        <g transform="translate(0,84)"> <text x="0" y="11">DUPLICATE</text>              <rect x="160" y="0" width="2"   height="14" fill="#94a3b8"/><text x="160" y="-2" font-size="10" fill="#0f172a">1 (0.35%)</text></g>
        <g transform="translate(0,112)"><text x="0" y="11">DRIFTED</text>                <rect x="160" y="0" width="0"   height="14" fill="#cbd5e1"/><text x="160" y="-2" font-size="10" fill="#0f172a">0 (0.00%)</text></g>
      </g>
      <text class="label-mu" x="20" y="200" font-style="italic">基于 frozen HEAD `d181be2f`；289 = 287 baseline + 2 footnoted。</text>
    </g>

    <!-- 5B: runtime sequence -->
    <g transform="translate(520,0)">
      <rect class="panel" width="500" height="220" rx="6"/>
      <text class="sec-title" x="14" y="30">5B · 运行时状态时序 (D8)</text>
      <text class="code-tag" x="14" y="44">09-runtime-state-sequence.md  ·  d8-runtime-state-sequence.svg</text>

      <!-- state machine graph -->
      <g transform="translate(20,72)">
        <!-- happy path: queued → running → waiting → done -->
        <g><rect width="76" height="32" fill="#dbeafe" stroke="#3b82f6" rx="4"/><text x="38" y="14" text-anchor="middle" font-size="11" font-weight="700" fill="#1e40af">queued</text><text x="38" y="26" text-anchor="middle" font-size="9" fill="#475569">队列中</text></g>
        <path class="arrow" d="M 80 16 L 110 16" marker-end="url(#arrow)"/>
        <g transform="translate(110,0)"><rect width="76" height="32" fill="#fef3c7" stroke="#f59e0b" rx="4"/><text x="38" y="14" text-anchor="middle" font-size="11" font-weight="700" fill="#92400e">running</text><text x="38" y="26" text-anchor="middle" font-size="9" fill="#475569">运行中</text></g>
        <path class="arrow" d="M 190 16 L 220 16" marker-end="url(#arrow)"/>
        <g transform="translate(220,0)"><rect width="76" height="32" fill="#ede9fe" stroke="#8b5cf6" rx="4"/><text x="38" y="14" text-anchor="middle" font-size="11" font-weight="700" fill="#5b21b6">waiting</text><text x="38" y="26" text-anchor="middle" font-size="9" fill="#475569">等待中</text></g>
        <path class="arrow" d="M 300 16 L 330 16" marker-end="url(#arrow)"/>
        <g transform="translate(330,0)"><rect width="76" height="32" fill="#dcfce7" stroke="#16a34a" rx="4"/><text x="38" y="14" text-anchor="middle" font-size="11" font-weight="700" fill="#166534">done</text><text x="38" y="26" text-anchor="middle" font-size="9" fill="#475569">已完成</text></g>

        <!-- side branches: failed / cancelled / expired -->
        <path class="arrow" stroke="#ef4444" stroke-dasharray="3 2" d="M 148 32 L 148 70" marker-end="url(#arrowred)"/>
        <g transform="translate(110,72)"><rect width="76" height="28" fill="#fee2e2" stroke="#ef4444" rx="4"/><text x="38" y="13" text-anchor="middle" font-size="11" font-weight="700" fill="#991b1b">failed</text><text x="38" y="24" text-anchor="middle" font-size="9" fill="#991b1b">失败</text></g>

        <path class="arrow" stroke="#94a3b8" stroke-dasharray="3 2" d="M 258 32 L 258 70" marker-end="url(#arrowgray)"/>
        <g transform="translate(220,72)"><rect width="76" height="28" fill="#f1f5f9" stroke="#94a3b8" rx="4"/><text x="38" y="13" text-anchor="middle" font-size="11" font-weight="700" fill="#475569">cancelled</text><text x="38" y="24" text-anchor="middle" font-size="9" fill="#475569">已取消</text></g>

        <path class="arrow" stroke="#94a3b8" stroke-dasharray="3 2" d="M 368 32 L 368 70" marker-end="url(#arrowgray)"/>
        <g transform="translate(330,72)"><rect width="76" height="28" fill="#f1f5f9" stroke="#94a3b8" rx="4"/><text x="38" y="13" text-anchor="middle" font-size="11" font-weight="700" fill="#475569">expired</text><text x="38" y="24" text-anchor="middle" font-size="9" fill="#475569">超时</text></g>
      </g>

      <text class="label-mu" x="20" y="200" font-style="italic">每次状态变更同步追加到 audit-chain 与 lineage；replay 可回放轨迹。</text>
    </g>

    <!-- 5C: storyline -->
    <g transform="translate(1040,0)">
      <rect class="panel" width="540" height="220" rx="6"/>
      <text class="sec-title" x="14" y="30">5C · 对外讲述主线</text>
      <text class="code-tag" x="14" y="44">10-demo-storyline.md</text>

      <text x="270" y="78" text-anchor="middle" font-size="18" font-weight="700" fill="#0f172a">"写代码前，先把问题想清楚"</text>
      <text x="270" y="98" text-anchor="middle" font-size="11" fill="#64748b">spec 是这套自助点想法到证据回流的全闭环</text>

      <!-- pipeline chips -->
      <g transform="translate(20,118)" font-size="10">
        <g><rect width="78" height="32" fill="#fef3c7" stroke="#f59e0b" rx="3"/><text x="39" y="14" text-anchor="middle" font-weight="700">Idea</text><text x="39" y="26" text-anchor="middle" font-size="9">模糊想法</text></g>
        <g transform="translate(82,0)"><rect width="78" height="32" fill="#fce7f3" stroke="#ec4899" rx="3"/><text x="39" y="14" text-anchor="middle" font-weight="700">Clarification</text><text x="39" y="26" text-anchor="middle" font-size="9">澄清</text></g>
        <g transform="translate(164,0)"><rect width="78" height="32" fill="#dbeafe" stroke="#3b82f6" rx="3"/><text x="39" y="14" text-anchor="middle" font-weight="700">Spec</text><text x="39" y="26" text-anchor="middle" font-size="9">规格生成</text></g>
        <g transform="translate(246,0)"><rect width="78" height="32" fill="#ede9fe" stroke="#8b5cf6" rx="3"/><text x="39" y="14" text-anchor="middle" font-weight="700">Route</text><text x="39" y="26" text-anchor="middle" font-size="9">路由决策</text></g>
        <g transform="translate(328,0)"><rect width="78" height="32" fill="#dcfce7" stroke="#16a34a" rx="3"/><text x="39" y="14" text-anchor="middle" font-weight="700">Execution</text><text x="39" y="26" text-anchor="middle" font-size="9">执行 (Tree/Agent)</text></g>
        <g transform="translate(410,0)"><rect width="100" height="32" fill="#cffafe" stroke="#06b6d4" rx="3"/><text x="50" y="14" text-anchor="middle" font-weight="700">Evidence</text><text x="50" y="26" text-anchor="middle" font-size="9">Audit / Replay</text></g>
      </g>

      <text x="270" y="180" text-anchor="middle" font-size="11" font-weight="700" fill="#1e40af">Mission as Task Autopilot</text>
      <text x="270" y="195" text-anchor="middle" font-size="10" fill="#64748b">从 spec 起点 → fleet evidence — 用户视角 + 系统模型化 + 执行 fleet 串联</text>
    </g>
  </g>

  <!-- ============= row D: bottom (file index, B-tier, exec checklist, artifacts) ============= -->
  <g id="row-d" transform="translate(20,892)">
    <!-- file index -->
    <g>
      <rect class="panel" width="380" height="180" rx="6"/>
      <text class="sec-title" x="14" y="24">文档体系总索引 (12+)</text>
      <g transform="translate(14,38)" class="mono" font-size="9.5" fill="#0f172a">
        <text x="0" y="14">00-project-definition.md</text>
        <text x="0" y="30">01-main-business-loop.md</text>
        <text x="0" y="46">02-core-object-model.md</text>
        <text x="0" y="62">03-system-layering.md</text>
        <text x="0" y="78">04-domain-map.md</text>
        <text x="0" y="94">05-frontend-navigation-map.md</text>
        <text x="0" y="110">06-backend-capability-map.md</text>
        <text x="0" y="126">07-spec-current-state-audit.md</text>
        <text x="180" y="14">08-code-doc-reconciliation.md</text>
        <text x="180" y="30">09-runtime-state-sequence.md</text>
        <text x="180" y="46">10-demo-storyline.md</text>
        <text x="180" y="62">spec-audit-table.md</text>
        <text x="180" y="78">module-inventory.md</text>
        <text x="180" y="94">B_Tier_Recommendation.md</text>
        <text x="180" y="110" fill="#16a34a">evidence/cap-audit.mjs</text>
        <text x="180" y="126" fill="#16a34a">evidence/README.md</text>
      </g>
    </g>

    <!-- B-tier -->
    <g transform="translate(390,0)">
      <rect class="panel" width="380" height="180" rx="6"/>
      <text class="sec-title" x="14" y="24">B-Tier 重组建议</text>
      <text class="code-tag" x="14" y="38">B_Tier_Recommendation.md</text>

      <text class="label" x="14" y="60" font-weight="700">核心建议</text>
      <text class="label-mu" x="14" y="76">BRANCH (439) 体量大；其中 infrastructure (403) 多为</text>
      <text class="label-mu" x="14" y="90">blueprint runtime / 工具 / 桥接，应先收敛。</text>

      <text class="label" x="14" y="112" font-weight="700">优先级</text>
      <text class="label-mu" x="14" y="128">infrastructure → interop → executor → audit → workflow</text>

      <text class="label" x="14" y="148" font-weight="700">C-Tier (跨域桥)</text>
      <text class="label-mu" x="14" y="164">Schema · Contract · 测试一致性</text>
    </g>

    <!-- exec checklist -->
    <g transform="translate(780,0)">
      <rect class="panel" width="380" height="180" rx="6"/>
      <text class="sec-title" x="14" y="24">执行清单</text>
      <g transform="translate(14,40)" font-size="11">
        <g transform="translate(0,0)"><rect width="14" height="14" fill="#dcfce7" stroke="#16a34a" rx="2"/><text x="6" y="11" text-anchor="middle" fill="#166534">✓</text><text x="22" y="12">抽离 Service Boundary</text></g>
        <g transform="translate(0,22)"><rect width="14" height="14" fill="#dcfce7" stroke="#16a34a" rx="2"/><text x="6" y="11" text-anchor="middle" fill="#166534">✓</text><text x="22" y="12">Schema · Contract · 测试</text></g>
        <g transform="translate(0,44)"><rect width="14" height="14" fill="#fef3c7" stroke="#f59e0b" rx="2"/><text x="22" y="12">引入 Evidence-as-Tests</text></g>
        <g transform="translate(0,66)"><rect width="14" height="14" fill="#fef3c7" stroke="#f59e0b" rx="2"/><text x="22" y="12">同步 trunk vs TRUNK 命名</text></g>
        <g transform="translate(0,88)"><rect width="14" height="14" fill="#f1f5f9" stroke="#94a3b8" rx="2"/><text x="22" y="12">D-Tier: TypeDoc / madge</text></g>
        <g transform="translate(0,110)"><rect width="14" height="14" fill="#f1f5f9" stroke="#94a3b8" rx="2"/><text x="22" y="12">D-Tier: dependency-cruiser</text></g>
      </g>
    </g>

    <!-- artifacts -->
    <g transform="translate(1170,0)">
      <rect class="panel" width="410" height="180" rx="6"/>
      <text class="sec-title" x="14" y="24">产物与图件 (Artifacts &amp; Diagrams)</text>
      <g transform="translate(14,40)" class="mono" font-size="9.5" fill="#0f172a">
        <text x="0" y="14">d1-main-business-loop.svg</text>
        <text x="0" y="30">d2-core-object-model.svg</text>
        <text x="0" y="46">d3-system-layering.svg</text>
        <text x="0" y="62">d4-domain-map.svg</text>
        <text x="200" y="14">d5-frontend-navigation-map.svg</text>
        <text x="200" y="30">d6-backend-capability-map.svg</text>
        <text x="200" y="46">d7-bucket-distribution.svg</text>
        <text x="200" y="62">d8-runtime-state-sequence.svg</text>
        <text x="0" y="92" fill="#475569">8 mandatory + 0 optional (cap 8–15)</text>
        <text x="0" y="108" fill="#475569">每张 SVG 都带 manifest: 块，引用 audit-table</text>
        <text x="0" y="124" fill="#475569">或 module-inventory 的具体 row。</text>
      </g>
    </g>
  </g>

  <!-- ============= footer ============= -->
  <g id="footer" transform="translate(0,1080)">
    <rect x="0" y="0" width="1600" height="20" fill="#0f172a"/>
    <text x="20" y="14" font-size="11" fill="#cbd5e1">仓库  WhyBuddy (Task Autopilot)</text>
    <text x="320" y="14" font-size="11" fill="#cbd5e1">侦察版本  A+</text>
    <text x="450" y="14" font-size="11" fill="#cbd5e1">日期  2026-05-28</text>
    <text x="800" y="14" text-anchor="middle" font-size="11" font-weight="700" fill="#fbbf24">写代码前，先把问题想清楚 · 在 AI 出错的方向上，高效执行</text>
    <text x="1580" y="14" text-anchor="end" font-size="11" fill="#cbd5e1">Evidence Package: repo-system-reconnaissance-2026-05-28</text>
  </g>

  <!-- arrow markers -->
  <defs>
    <marker id="arrow" viewBox="0 0 10 10" refX="9" refY="5" markerWidth="6" markerHeight="6" orient="auto">
      <path d="M 0 0 L 10 5 L 0 10 z" fill="#94a3b8"/>
    </marker>
    <marker id="arrowred" viewBox="0 0 10 10" refX="9" refY="5" markerWidth="6" markerHeight="6" orient="auto">
      <path d="M 0 0 L 10 5 L 0 10 z" fill="#ef4444"/>
    </marker>
    <marker id="arrowgray" viewBox="0 0 10 10" refX="9" refY="5" markerWidth="6" markerHeight="6" orient="auto">
      <path d="M 0 0 L 10 5 L 0 10 z" fill="#94a3b8"/>
    </marker>
  </defs>
</svg>
